<svg width="696" height="900" viewBox="0 0 696 900" fill="none" xmlns="http://www.w3.org/2000/svg">
<mask id="mask0_74_489" style="mask-type:alpha" maskUnits="userSpaceOnUse" x="0" y="0" width="696" height="900">
<path d="M0 0H696L334.74 900H0V0Z" fill="#0B3954"/>
</mask>
<g mask="url(#mask0_74_489)">
<path d="M-1 0H695L333.74 900H-1V0Z" fill="#0B3954"/>
<g opacity="0.1" filter="url(#filter0_f_74_489)">
<ellipse cx="192.5" cy="71" rx="274.5" ry="312" fill="#D9D9D9"/>
</g>
<g opacity="0.3">
<path fill-rule="evenodd" clip-rule="evenodd" d="M107.653 -269.893C194.444 -272.675 298.061 -297.893 355.475 -232.747C412.26 -168.315 357.191 -70.7937 358.801 15.0746C360.473 104.242 433.129 214.881 364.945 272.366C295.721 330.729 198.017 232.517 107.653 226.817C29.0618 221.859 -53.3907 285.226 -119.102 241.83C-190.065 194.965 -211.917 100.11 -212.967 15.0746C-214.032 -71.0633 -189.163 -160.125 -124.775 -217.353C-63.0558 -272.209 25.1221 -267.248 107.653 -269.893Z" fill="#8B9EAD"/>
<path fill-rule="evenodd" clip-rule="evenodd" d="M89.6532 -282.893C176.444 -285.675 280.061 -310.893 337.475 -245.747C394.26 -181.315 339.191 -83.7937 340.801 2.07458C342.473 91.2416 415.129 201.881 346.945 259.366C277.721 317.729 180.017 219.517 89.6532 213.817C11.0618 208.859 -71.3907 272.226 -137.102 228.83C-208.065 181.965 -229.917 87.1098 -230.967 2.07458C-232.032 -84.0633 -207.163 -173.125 -142.775 -230.353C-81.0558 -285.209 7.12209 -280.248 89.6532 -282.893Z" fill="#B4CBDD"/>
</g>
<g opacity="0.1" filter="url(#filter1_f_74_489)">
<ellipse cx="303.5" cy="788" rx="274.5" ry="312" fill="#D9D9D9"/>
</g>
<g opacity="0.3">
<path fill-rule="evenodd" clip-rule="evenodd" d="M478.175 1123.37C436.428 1144.07 401.58 1176.51 356.64 1188.84C305.537 1202.86 250.331 1216.36 200.032 1199.69C149.032 1182.77 100.532 1145.77 78.6878 1096.68C56.8497 1047.6 73.6859 990.45 83.4177 937.623C90.8272 897.403 124.383 865.916 128.692 825.246C133.632 778.616 82.4052 725.593 109.905 687.612C137.057 650.111 208.298 692.576 245.095 664.478C294.019 627.12 282.112 523.205 342.273 510.177C396.07 498.527 417.272 590.594 465.733 616.698C510.016 640.55 573.086 620.067 609.904 654.335C646.28 688.191 655.997 744.357 656.285 794.049C656.554 840.686 620.112 878.907 611.467 924.736C602.643 971.518 631.586 1026.09 605.059 1065.62C578.837 1104.7 520.333 1102.46 478.175 1123.37Z" fill="#8B9EAD"/>
<path fill-rule="evenodd" clip-rule="evenodd" d="M496.175 1146.37C454.428 1167.07 419.58 1199.51 374.64 1211.84C323.537 1225.86 268.331 1239.36 218.032 1222.69C167.032 1205.77 118.532 1168.77 96.6878 1119.68C74.8497 1070.6 91.6859 1013.45 101.418 960.623C108.827 920.403 142.383 888.916 146.692 848.246C151.632 801.616 100.405 748.593 127.905 710.612C155.057 673.111 226.298 715.576 263.095 687.478C312.019 650.12 300.112 546.205 360.273 533.177C414.07 521.527 435.272 613.594 483.733 639.698C528.016 663.55 591.086 643.067 627.904 677.335C664.28 711.191 673.997 767.357 674.285 817.049C674.554 863.686 638.112 901.907 629.467 947.736C620.643 994.518 649.586 1049.09 623.059 1088.62C596.837 1127.7 538.333 1125.46 496.175 1146.37Z" fill="#B4CBDD"/>
</g>
</g>
<defs>
<filter id="filter0_f_74_489" x="-182" y="-341" width="749" height="824" filterUnits="userSpaceOnUse" color-interpolation-filters="sRGB">
<feFlood flood-opacity="0" result="BackgroundImageFix"/>
<feBlend mode="normal" in="SourceGraphic" in2="BackgroundImageFix" result="shape"/>
<feGaussianBlur stdDeviation="50" result="effect1_foregroundBlur_74_489"/>
</filter>
<filter id="filter1_f_74_489" x="-71" y="376" width="749" height="824" filterUnits="userSpaceOnUse" color-interpolation-filters="sRGB">
<feFlood flood-opacity="0" result="BackgroundImageFix"/>
<feBlend mode="normal" in="SourceGraphic" in2="BackgroundImageFix" result="shape"/>
<feGaussianBlur stdDeviation="50" result="effect1_foregroundBlur_74_489"/>
</filter>
</defs>
</svg>
