<svg width="409" height="229" viewBox="0 0 409 229" fill="none" xmlns="http://www.w3.org/2000/svg">
<g filter="url(#filter0_d_65_379)">
<g clip-path="url(#clip0_65_379)">
<rect width="400" height="220" rx="20" fill="url(#paint0_linear_65_379)"/>
<ellipse cx="49.0625" cy="49.5" rx="23.0625" ry="23.5" fill="#0B3954"/>
<path d="M105 49.4999C105 57.991 98.2594 64.7777 90.0625 64.7777C81.8656 64.7777 75.125 57.991 75.125 49.4999C75.125 41.0089 81.8656 34.2222 90.0625 34.2222C98.2594 34.2222 105 41.0089 105 49.4999Z" stroke="#0B3954" stroke-width="6"/>
<g opacity="0.3" filter="url(#filter1_d_65_379)">
<path fill-rule="evenodd" clip-rule="evenodd" d="M346.465 87.973C370.466 87.46 382.428 117.905 401.242 132.816C417.021 145.321 438.556 151.278 448.458 168.806C458.338 186.294 458.421 207.927 454.841 227.691C451.564 245.78 436.531 258.59 429.145 275.425C420.618 294.861 423.103 319.39 408.046 334.349C392.213 350.079 368.619 360.266 346.465 357.567C324.526 354.894 308.051 336.493 292.978 320.33C280.601 307.059 279.365 287.074 267.733 273.145C252.7 255.145 223.792 249.67 215.611 227.691C207.222 205.154 209.203 175.8 224.631 157.353C240.275 138.647 271.832 147.196 293.023 135.129C314.025 123.169 322.301 88.4895 346.465 87.973Z" fill="#B4CBDD"/>
<path d="M45.6666 -49.6638C63.6169 -54.7914 82.2062 -53.3369 100.537 -49.8037C127.433 -44.6199 169.605 -50.7602 176.919 -24.3659C184.834 4.19205 133.036 18.2265 127.456 47.3306C122.33 74.0631 169.284 107.139 148.364 124.555C125.497 143.591 94.2572 100.215 64.507 99.7331C47.5483 99.4585 36.9244 124.966 20.1468 122.479C3.61541 120.028 -3.65187 100.413 -14.8114 87.9731C-26.1958 75.2829 -45.6581 65.7946 -45.9955 48.75C-46.3389 31.4066 -26.7889 21.1237 -16.4099 7.22406C-8.47417 -3.40357 -1.96044 -14.3568 7.81818 -23.3181C19.3851 -33.9181 30.5803 -45.3543 45.6666 -49.6638Z" fill="#B4CBDD"/>
</g>
<rect x="32" y="99" width="33" height="22" rx="5" fill="url(#paint1_radial_65_379)"/>
<path fill-rule="evenodd" clip-rule="evenodd" d="M48.4999 99L44.8333 104.749C44.8333 104.749 46.2999 109.78 44.8333 114.092L48.4999 120.56L52.1666 114.092C52.1666 114.092 50.6999 110.499 52.1666 104.749C52.1666 104.749 48.4999 99 48.4999 99Z" stroke="#C7C7B6" stroke-width="1.3" stroke-linejoin="bevel"/>
<path d="M32 105.013H44.8333" stroke="#C7C7B6" stroke-width="1.3" stroke-linejoin="bevel"/>
<path d="M51.7996 105.013H64.9996" stroke="#C7C7B6" stroke-width="1.3" stroke-linejoin="bevel"/>
<path d="M32 113.813H44.8333" stroke="#C7C7B6" stroke-width="1.3" stroke-linejoin="bevel"/>
<path d="M51.7996 113.813H64.9996" stroke="#C7C7B6" stroke-width="1.3" stroke-linejoin="bevel"/>
</g>
</g>
<defs>
<filter id="filter0_d_65_379" x="0" y="0" width="409" height="229" filterUnits="userSpaceOnUse" color-interpolation-filters="sRGB">
<feFlood flood-opacity="0" result="BackgroundImageFix"/>
<feColorMatrix in="SourceAlpha" type="matrix" values="0 0 0 0 0 0 0 0 0 0 0 0 0 0 0 0 0 0 127 0" result="hardAlpha"/>
<feOffset dx="5" dy="5"/>
<feGaussianBlur stdDeviation="2"/>
<feComposite in2="hardAlpha" operator="out"/>
<feColorMatrix type="matrix" values="0 0 0 0 0 0 0 0 0 0 0 0 0 0 0 0 0 0 0.25 0"/>
<feBlend mode="normal" in2="BackgroundImageFix" result="effect1_dropShadow_65_379"/>
<feBlend mode="normal" in="SourceGraphic" in2="effect1_dropShadow_65_379" result="shape"/>
</filter>
<filter id="filter1_d_65_379" x="-66" y="-63" width="523" height="431" filterUnits="userSpaceOnUse" color-interpolation-filters="sRGB">
<feFlood flood-opacity="0" result="BackgroundImageFix"/>
<feColorMatrix in="SourceAlpha" type="matrix" values="0 0 0 0 0 0 0 0 0 0 0 0 0 0 0 0 0 0 127 0" result="hardAlpha"/>
<feOffset dx="-10"/>
<feGaussianBlur stdDeviation="5"/>
<feComposite in2="hardAlpha" operator="out"/>
<feColorMatrix type="matrix" values="0 0 0 0 0 0 0 0 0 0 0 0 0 0 0 0 0 0 0.1 0"/>
<feBlend mode="normal" in2="BackgroundImageFix" result="effect1_dropShadow_65_379"/>
<feBlend mode="normal" in="SourceGraphic" in2="effect1_dropShadow_65_379" result="shape"/>
</filter>
<linearGradient id="paint0_linear_65_379" x1="200" y1="0" x2="200" y2="220" gradientUnits="userSpaceOnUse">
<stop stop-color="#D7F749"/>
<stop offset="1" stop-color="#8CAB00"/>
</linearGradient>
<radialGradient id="paint1_radial_65_379" cx="0" cy="0" r="1" gradientUnits="userSpaceOnUse" gradientTransform="translate(50.9503 107.014) rotate(141.302) scale(22.37 22.2003)">
<stop stop-color="white"/>
<stop offset="1" stop-color="#DDDCDA"/>
</radialGradient>
<clipPath id="clip0_65_379">
<rect width="400" height="220" rx="20" fill="white"/>
</clipPath>
</defs>
</svg>
