<svg width="51" height="49" viewBox="0 0 51 49" fill="none" xmlns="http://www.w3.org/2000/svg">
<ellipse cx="25.5" cy="24.5" rx="25.5" ry="24.5" fill="#0B3954"/>
<path d="M23.1431 29.5045V24.4165C24.8711 24.3311 26.1938 23.9685 27.1111 23.3285C28.0498 22.6671 28.5191 21.6965 28.5191 20.4165V19.9685C28.5191 18.9871 28.2204 18.2298 27.6231 17.6965C27.0258 17.1418 26.2258 16.8645 25.2231 16.8645C24.1564 16.8645 23.3031 17.1738 22.6631 17.7924C22.0231 18.4111 21.5858 19.2004 21.3511 20.1604L18.3111 18.9445C18.5031 18.2831 18.7804 17.6431 19.1431 17.0245C19.5271 16.4058 20.0071 15.8618 20.5831 15.3925C21.1591 14.9018 21.8418 14.5178 22.6311 14.2404C23.4204 13.9418 24.3271 13.7924 25.3511 13.7924C26.3964 13.7924 27.3458 13.9418 28.1991 14.2404C29.0524 14.5391 29.7778 14.9658 30.3751 15.5205C30.9724 16.0538 31.4311 16.7151 31.7511 17.5044C32.0711 18.2725 32.2311 19.1258 32.2311 20.0645C32.2311 21.0245 32.0604 21.8885 31.7191 22.6565C31.3991 23.4031 30.9618 24.0431 30.4071 24.5765C29.8738 25.1098 29.2658 25.5471 28.5831 25.8885C27.9004 26.2085 27.1964 26.4325 26.4711 26.5605V29.5045H23.1431ZM24.8391 36.8965C24.0284 36.8965 23.4311 36.7045 23.0471 36.3205C22.6844 35.9151 22.5031 35.4031 22.5031 34.7845V34.2405C22.5031 33.6218 22.6844 33.1205 23.0471 32.7365C23.4311 32.3311 24.0284 32.1285 24.8391 32.1285C25.6498 32.1285 26.2364 32.3311 26.5991 32.7365C26.9831 33.1205 27.1751 33.6218 27.1751 34.2405V34.7845C27.1751 35.4031 26.9831 35.9151 26.5991 36.3205C26.2364 36.7045 25.6498 36.8965 24.8391 36.8965Z" fill="white"/>
</svg>
