<svg width="678" height="524" viewBox="0 0 678 524" fill="none" xmlns="http://www.w3.org/2000/svg">
<g opacity="0.1" filter="url(#filter0_f_94_706)">
<ellipse cx="303.5" cy="412" rx="274.5" ry="312" fill="#D9D9D9"/>
</g>
<g opacity="0.3">
<path fill-rule="evenodd" clip-rule="evenodd" d="M478.175 747.367C436.428 768.075 401.58 800.512 356.64 812.842C305.537 826.864 250.331 840.363 200.032 823.685C149.032 806.775 100.532 769.768 78.6878 720.68C56.8497 671.604 73.6859 614.45 83.4177 561.623C90.8272 521.403 124.383 489.916 128.692 449.246C133.632 402.616 82.4052 349.593 109.905 311.612C137.057 274.111 208.298 316.576 245.095 288.478C294.019 251.12 282.112 147.205 342.273 134.177C396.07 122.527 417.272 214.594 465.733 240.698C510.016 264.55 573.086 244.067 609.904 278.335C646.28 312.191 655.997 368.357 656.285 418.049C656.554 464.686 620.112 502.907 611.467 548.736C602.643 595.518 631.586 650.089 605.059 689.62C578.837 728.696 520.333 726.456 478.175 747.367Z" fill="#8B9EAD"/>
<path fill-rule="evenodd" clip-rule="evenodd" d="M496.175 770.367C454.428 791.075 419.58 823.512 374.64 835.842C323.537 849.864 268.331 863.363 218.032 846.685C167.032 829.775 118.532 792.768 96.6878 743.68C74.8497 694.604 91.6859 637.45 101.418 584.623C108.827 544.403 142.383 512.916 146.692 472.246C151.632 425.616 100.405 372.593 127.905 334.612C155.057 297.111 226.298 339.576 263.095 311.478C312.019 274.12 300.112 170.205 360.273 157.177C414.07 145.527 435.272 237.594 483.733 263.698C528.016 287.55 591.086 267.067 627.904 301.335C664.28 335.191 673.997 391.357 674.285 441.049C674.554 487.686 638.112 525.907 629.467 571.736C620.643 618.518 649.586 673.089 623.059 712.62C596.837 751.696 538.333 749.456 496.175 770.367Z" fill="#B4CBDD"/>
</g>
<defs>
<filter id="filter0_f_94_706" x="-71" y="0" width="749" height="824" filterUnits="userSpaceOnUse" color-interpolation-filters="sRGB">
<feFlood flood-opacity="0" result="BackgroundImageFix"/>
<feBlend mode="normal" in="SourceGraphic" in2="BackgroundImageFix" result="shape"/>
<feGaussianBlur stdDeviation="50" result="effect1_foregroundBlur_94_706"/>
</filter>
</defs>
</svg>
